PathFileType	4	(X/Y/Z)	C:/Users/opensim2020/Desktop/walking_exp_matlab/subject01_walking12_straight_02.trc	
DataRate	CameraRate	NumFrames	NumMarkers	Units	OrigDataRate	OrigDataStartFrame	OrigNumFrames	
100.00	100.00	6	44	mm	100.00	1292	122	
Frame#	Time	LFHD			RFHD			LBHD			RBHD			C7			T10			CLAV			STRN			RBAK			LSHO			LUPA			LELB			LFRM			LWRA			LWRB			LFIN			RSHO			RUPA			RELB			RFRM			RWRA			RWRB			RFIN			LASI			RASI			LPSI			RPSI			LTHI			LKNE			LTIB			LANK			LHEE			LTOE			RTHI			RKNE			RTIB			RANK			RHEE			RTOE			*39			*40			*41			*42			*43			
		X1	Y1	Z1	X2	Y2	Z2	X3	Y3	Z3	X4	Y4	Z4	X5	Y5	Z5	X6	Y6	Z6	X7	Y7	Z7	X8	Y8	Z8	X9	Y9	Z9	X10	Y10	Z10	X11	Y11	Z11	X12	Y12	Z12	X13	Y13	Z13	X14	Y14	Z14	X15	Y15	Z15	X16	Y16	Z16	X17	Y17	Z17	X18	Y18	Z18	X19	Y19	Z19	X20	Y20	Z20	X21	Y21	Z21	X22	Y22	Z22	X23	Y23	Z23	X24	Y24	Z24	X25	Y25	Z25	X26	Y26	Z26	X27	Y27	Z27	X28	Y28	Z28	X29	Y29	Z29	X30	Y30	Z30	X31	Y31	Z31	X32	Y32	Z32	X33	Y33	Z33	X34	Y34	Z34	X35	Y35	Z35	X36	Y36	Z36	X37	Y37	Z37	X38	Y38	Z38	X39	Y39	Z39	X40	Y40	Z40	X41	Y41	Z41	X42	Y42	Z42	X43	Y43	Z43	X44	Y44	Z44	

46	0.450	1513.56311	425.40903	1653.09106	1401.94434	406.27887	1658.77209	1499.96191	540.89624	1607.63208	1380.52246	523.56165	1612.18323	1455.74658	577.93597	1415.51917	1445.24548	614.10278	1121.40051	1457.61084	433.80872	1346.28882	1469.63513	390.49188	1192.94653	1381.89136	629.27350	1216.44861	1616.70166	496.95157	1380.12756	1713.47986	501.01498	1203.88379	1734.85754	474.32132	1052.88123	1765.78894	376.35907	992.71606	1756.73572	241.80925	959.97528	1777.44202	280.33218	918.50629	1796.40210	200.07109	901.98877	1303.34021	495.33511	1371.48743	1213.19421	585.78033	1178.78918	1213.50476	607.04407	1058.33704	1184.08716	615.63757	939.54535	1203.25073	575.15460	803.80627	1164.72729	617.51013	817.82184	1167.22180	606.02344	732.70728	1574.40051	453.63843	914.56488	1359.25183	418.46756	921.31714	1485.99133	628.85187	928.03510	1343.80530	603.65558	925.87781	1613.60962	567.89801	592.19592	1597.53992	617.46436	463.85880	1596.52148	747.24475	322.39291	1539.91284	873.15692	142.20770	1485.82239	920.91956	144.41153	1536.20398	768.37122	35.74111	1300.07922	384.02252	598.50586	1332.42078	333.57947	452.43201	1330.46741	339.75638	276.93893	1376.90222	300.39514	75.69427	1426.86060	341.18906	30.52260	1378.23230	157.24611	62.56748	1423.83423	419.59323	1691.91980	-3101.97510	1973.05591	1023.54285	-3140.62622	2012.54858	1022.09918						 
47	0.460	1512.00305	413.64752	1653.89319	1400.43921	394.13669	1659.54578	1498.03162	528.87866	1607.91699	1378.62256	511.14240	1612.46960	1453.48108	565.36169	1415.68323	1444.23511	600.13983	1121.27454	1455.87305	421.04822	1346.79065	1468.30835	376.93207	1193.83459	1380.22791	615.61212	1215.90186	1614.97717	484.88324	1380.34253	1711.86414	489.49646	1204.01709	1733.59888	464.06958	1052.73083	1764.83008	366.43237	992.13342	1755.80518	232.06612	958.74164	1776.81213	270.73599	917.59589	1795.40259	190.35063	900.54242	1301.43091	481.94193	1371.20752	1211.50830	571.78558	1177.83740	1212.47485	593.09467	1057.40161	1183.40552	602.12787	938.54443	1203.24512	562.26965	802.62524	1164.58398	604.53601	816.68878	1167.45093	593.26050	731.88434	1573.42395	438.73856	913.97803	1358.67261	404.00330	921.37659	1486.44702	614.42700	927.65894	1343.46204	589.31128	925.80524	1613.74146	551.73474	591.19928	1598.56311	601.09961	462.72952	1597.91150	734.78711	325.05466	1542.23022	865.63586	148.32672	1488.30164	912.33240	153.62283	1536.35425	767.34290	35.82724	1298.92639	371.82159	598.79883	1333.27356	320.17963	453.08109	1330.59277	328.82352	278.41977	1376.53381	296.05594	75.90969	1426.01160	338.95184	32.00144	1378.57971	154.07295	56.10339	1422.37183	407.71161	1692.63770	-3101.82251	1973.15393	1023.44269	-3140.69800	2012.57153	1022.02905						 
48	0.470	1510.32922	401.64587	1654.94678	1398.99097	381.69739	1660.59888	1495.93591	516.80243	1608.89893	1376.62622	498.54092	1613.48096	1451.37439	552.42926	1416.26868	1443.42078	586.13354	1121.44714	1454.32959	408.28076	1347.98364	1466.94189	363.35391	1195.16455	1378.39063	602.07037	1215.97974	1613.36414	472.86963	1380.93567	1710.05713	478.20624	1204.45227	1732.19592	454.03244	1052.93774	1763.73047	356.91330	991.58130	1754.78418	222.83400	957.13434	1775.85828	261.83673	916.34161	1794.55737	181.73621	898.98242	1299.70898	468.61713	1371.43042	1209.68408	557.29340	1177.19568	1211.42639	578.66205	1056.68860	1182.73938	588.08661	937.80933	1203.27759	548.80524	801.86530	1164.32227	590.71741	815.82544	1167.51514	579.92017	731.10510	1572.43518	423.87445	913.88965	1358.13599	389.56586	921.83203	1487.04065	599.90631	927.69592	1343.33850	575.25116	926.55414	1614.10205	534.25409	590.36127	1600.02576	582.79254	461.52551	1599.91931	720.92206	328.42242	1544.76270	856.47943	155.29848	1490.29431	901.33423	163.29738	1536.29565	766.24866	35.67439	1296.93323	361.13165	598.88568	1333.96631	306.76666	454.74374	1328.80701	316.79636	279.82007	1375.63477	292.71515	75.53665	1425.35022	337.68787	33.52334	1379.01941	151.45149	49.01813	1420.76904	395.85687	1693.64319	-3101.88110	1973.13696	1023.46997	-3140.74609	2012.56018	1022.14655						 
49	0.480	1508.74829	389.59369	1655.96179	1397.53723	369.21664	1661.66870	1493.88623	504.76236	1610.15271	1374.67676	485.97717	1614.73779	1449.33374	539.45093	1416.87122	1442.65637	572.22546	1121.73547	1452.77832	395.51733	1349.35608	1465.45325	349.71844	1196.62427	1376.52417	588.61072	1216.42578	1611.81030	460.77560	1381.77576	1708.00879	467.30292	1205.10547	1730.69653	444.31354	1053.55615	1762.37634	347.85999	991.04688	1753.61523	214.24527	955.20209	1774.77954	253.67816	914.89893	1793.54321	173.79785	896.71375	1298.06909	455.41846	1371.75159	1207.83740	542.52942	1176.94507	1210.43469	563.80414	1056.34619	1182.07593	573.36987	937.31757	1203.26599	534.57629	801.45996	1164.10156	576.25659	815.39191	1167.73328	565.93530	730.81030	1571.13770	409.02695	914.04932	1357.59033	375.39337	922.80865	1487.51563	585.38385	928.06488	1343.49182	561.39319	928.16980	1614.99194	515.70911	589.63483	1602.34534	562.68555	460.47607	1601.95178	704.99146	331.89667	1547.34985	845.24945	162.57170	1491.94861	887.78998	173.26466	1536.44910	764.94244	35.80782	1296.03162	350.23859	599.27057	1334.03735	294.54266	455.53989	1327.45227	306.07434	280.44269	1375.31030	289.66177	75.22127	1424.50208	336.34610	34.61406	1380.02063	149.21664	44.18133	1419.24146	383.33755	1694.87732	-3101.98413	1973.03162	1023.60413	-3140.58545	2012.46875	1021.96509						 
50	0.490	1507.14624	377.65704	1656.98584	1395.96704	356.79578	1662.70483	1491.79102	492.68585	1611.34863	1372.68823	473.43762	1615.91614	1447.55493	526.70038	1417.48987	1441.80969	558.53918	1122.09363	1451.35071	382.68408	1350.68225	1464.16638	336.12729	1198.21899	1374.74988	575.18323	1216.95886	1610.26111	448.55072	1382.79285	1706.34119	456.56274	1206.07166	1729.09717	434.86389	1054.45618	1760.86304	339.27878	990.66315	1752.31152	206.24629	952.96271	1773.41626	246.12700	913.21082	1792.42664	166.61041	894.02234	1296.51245	442.40103	1372.57690	1206.06970	527.76770	1177.17102	1209.43030	548.67120	1056.34766	1181.42749	558.28583	937.45551	1203.14795	519.81244	801.43207	1163.43933	561.24445	815.41052	1167.78284	551.10162	730.51007	1569.72241	394.35385	914.55231	1356.85132	361.64420	923.90869	1488.00244	570.96149	928.87964	1343.72986	547.84009	930.29675	1616.40686	496.31998	588.78284	1605.07544	541.14557	459.24875	1604.19507	687.18353	335.32471	1550.18677	832.13525	169.76869	1493.46826	871.78497	183.19366	1535.93750	763.59094	35.67834	1296.26550	338.51761	599.68262	1333.33765	283.80432	455.43527	1326.43347	297.27344	279.83160	1375.42798	287.52600	74.85147	1424.14661	335.18781	35.09812	1380.57153	147.43668	42.02044	1417.66541	370.61499	1696.09424	-3101.96191	1973.00500	1023.88300	-3140.62817	2012.51440	1022.03979						 
51	0.500	1505.55554	365.72012	1658.11084	1394.47913	344.45975	1663.86108	1489.83276	480.68054	1612.41760	1370.77319	461.03256	1616.96509	1445.95923	514.30573	1418.00867	1441.10498	544.97559	1122.69116	1449.99500	369.90439	1351.91052	1462.99658	322.55704	1199.84961	1373.20605	561.74207	1217.49255	1608.70947	436.27515	1383.92847	1704.73621	445.92386	1206.99792	1727.35950	425.70447	1055.36670	1759.33276	331.27371	990.28613	1750.91968	198.68692	950.45270	1771.94360	239.20645	911.33813	1791.14636	160.07208	890.79260	1295.30103	429.43198	1373.34863	1204.44556	512.81329	1177.47131	1208.46790	533.38586	1056.64697	1180.74182	542.72400	937.82739	1203.18262	504.98224	801.69653	1162.83301	545.39435	815.76672	1167.73950	535.62476	730.54541	1568.24390	380.14706	915.26367	1355.87244	348.25589	925.24023	1488.27380	556.77979	930.01373	1343.81360	534.36310	932.60980	1618.06763	476.24426	587.81598	1607.81384	518.97504	457.97763	1606.73853	668.18146	338.61353	1553.40918	817.08362	176.28719	1495.89746	853.83105	193.07643	1535.32886	762.15009	36.11410	1296.41418	326.02966	600.94739	1332.54785	274.07581	454.80142	1325.30176	290.51630	278.55457	1375.64502	286.33823	74.77839	1423.92737	334.79977	35.45026	1381.17346	146.68727	40.65756	1416.06055	357.97528	1697.26099	-3101.93506	1973.01270	1023.88916	-3140.70508	2012.59766	1022.04846						 
